<svg xmlns="http://www.w3.org/2000/svg" xmlns:svg="http://www.w3.org/2000/svg" id="svg4" width="44" height="44" version="1.1" viewBox="0 0 44 44"><metadata id="metadata10"/><path id="path2" fill="#bd93f9" d="M42,23.5 C41.2,23.5 40.5,22.8 40.5,22 C40.5,11.8 32.2,3.5 22,3.5 C21.2,3.5 20.5,2.8 20.5,2 C20.5,1.2 21.2,0.5 22,0.5 C33.9,0.5 43.5,10.1 43.5,22 C43.5,22.8 42.8,23.5 42,23.5 Z M22,43.5 C10.1,43.5 0.5,33.9 0.5,22 C0.5,21.2 1.2,20.5 2,20.5 C2.8,20.5 3.5,21.2 3.5,22 C3.5,32.2 11.8,40.5 22,40.5 C22.8,40.5 23.5,41.2 23.5,42 C23.5,42.8 22.8,43.5 22,43.5 Z" style="fill:#bd93f9;fill-opacity:1"/></svg>